<svg xmlns="http://www.w3.org/2000/svg" width="1366" height="768" viewBox="0 0 1366 768">
  <defs><linearGradient id="bg" x2="1" y2="1"><stop stop-color="#14213c"/><stop offset="1" stop-color="#07101f"/></linearGradient><linearGradient id="win" x2="0" y2="1"><stop stop-color="#16243c"/><stop offset="1" stop-color="#0e1728"/></linearGradient><filter id="sh"><feDropShadow dx="0" dy="16" stdDeviation="15" flood-opacity=".38"/></filter></defs>
  <rect width="1366" height="768" fill="url(#bg)"/><circle cx="1165" cy="160" r="280" fill="#1e4f89" opacity=".34"/><circle cx="160" cy="720" r="340" fill="#0a7c91" opacity=".16"/>
  <g filter="url(#sh)"><rect x="120" y="76" width="820" height="570" rx="12" fill="url(#win)" stroke="#3e5170"/><rect x="120" y="76" width="820" height="46" rx="12" fill="#1e2e4a"/><circle cx="151" cy="99" r="6" fill="#fa5f57"/><circle cx="173" cy="99" r="6" fill="#fdbc3d"/><circle cx="195" cy="99" r="6" fill="#2fc950"/><text x="225" y="105" fill="#d8e6ff" font-family="Segoe UI,Arial" font-size="16">PetRunner — Project notes</text>
  <g fill="#6e87a9" font-family="Cascadia Code,monospace" font-size="17"><text x="166" y="170"># Focus session</text><text x="166" y="220">ship the release checklist</text><text x="166" y="270">review the final package</text><text x="166" y="320">keep a tiny companion nearby</text></g><g fill="#88dcff"><rect x="166" y="350" width="420" height="14" rx="7"/><rect x="166" y="390" width="610" height="14" rx="7" opacity=".55"/><rect x="166" y="430" width="350" height="14" rx="7" opacity=".38"/></g></g>
  <g transform="translate(1052 488)" filter="url(#sh)"><!-- crisp original pixel fox --><path d="M24 34h16V18h15v12h18V15h16v18h15v-14h18v45h-12v18H96v14H76v14H55V96H38V78H24z" fill="#e77828" stroke="#1a2638" stroke-width="6" stroke-linejoin="round"/><path d="M40 34l10-10 8 15m38-5 10-10 6 15" fill="none" stroke="#ffd4a1" stroke-width="8"/><rect x="48" y="48" width="10" height="10" fill="#172338"/><rect x="89" y="48" width="10" height="10" fill="#172338"/><path d="M67 65h13l-4 6h-5z" fill="#172338"/><path d="M46 79h59v17H46z" fill="#ffe1b4"/><path d="M111 53h23v31h-18V68h-5z" fill="#e77828" stroke="#1a2638" stroke-width="6"/></g>
  <g filter="url(#sh)"><rect x="1044" y="175" width="248" height="250" rx="8" fill="#f9fbff"/><text x="1066" y="207" fill="#172238" font-family="Segoe UI,Arial" font-size="18" font-weight="700">PetRunner</text><path d="M1044 221h248" stroke="#d3dce9"/><text x="1066" y="253" fill="#27364c" font-family="Segoe UI,Arial" font-size="16">Change Pet</text><text x="1066" y="287" fill="#27364c" font-family="Segoe UI,Arial" font-size="16">Size   ›</text><text x="1066" y="321" fill="#27364c" font-family="Segoe UI,Arial" font-size="16">Autonomous Pet</text><path d="M1247 313l8 8 15-18" fill="none" stroke="#1769c2" stroke-width="4"/><text x="1066" y="355" fill="#27364c" font-family="Segoe UI,Arial" font-size="16">Reset Position</text><text x="1066" y="389" fill="#27364c" font-family="Segoe UI,Arial" font-size="16">Settings…</text><path d="M1044 404h248" stroke="#d3dce9"/></g>
  <text x="70" y="710" fill="#b9d4ee" font-family="Segoe UI,Arial" font-size="22">Your desktop, with a little more personality.</text>
</svg>
