<svg xmlns="http://www.w3.org/2000/svg" width="1366" height="768" viewBox="0 0 1366 768"><defs><linearGradient id="b" x2="1" y2="1"><stop stop-color="#0d1c35"/><stop offset="1" stop-color="#16445a"/></linearGradient><filter id="s"><feDropShadow dx="0" dy="16" stdDeviation="18" flood-opacity=".4"/></filter></defs><rect width="1366" height="768" fill="url(#b)"/><g filter="url(#s)"><rect x="172" y="88" width="860" height="550" rx="14" fill="#17263e" stroke="#416183"/><rect x="172" y="88" width="860" height="48" rx="14" fill="#233855"/><text x="200" y="119" font-family="Segoe UI,Arial" font-size="16" fill="#dce9fa">Work notes</text><g fill="#5d789b"><rect x="222" y="184" width="410" height="15" rx="7"/><rect x="222" y="224" width="560" height="15" rx="7"/><rect x="222" y="264" width="350" height="15" rx="7"/><rect x="222" y="304" width="610" height="15" rx="7"/><rect x="222" y="344" width="474" height="15" rx="7"/></g></g><g filter="url(#s)"><rect x="862" y="179" width="268" height="386" rx="8" fill="#f9fbff"/><text x="884" y="212" font-family="Segoe UI,Arial" font-size="18" font-weight="700" fill="#172238">PetRunner</text><path d="M862 226h268" stroke="#d3dce9"/><rect x="872" y="241" width="248" height="36" rx="4" fill="#e7f1ff"/><text x="884" y="265" font-family="Segoe UI,Arial" font-size="16" fill="#27364c">Change Pet</text><text x="1094" y="265" font-family="Segoe UI,Arial" font-size="18" fill="#27364c">›</text><text x="884" y="307" font-family="Segoe UI,Arial" font-size="16" fill="#27364c">Size</text><text x="1094" y="307" font-family="Segoe UI,Arial" font-size="18" fill="#27364c">›</text><text x="884" y="349" font-family="Segoe UI,Arial" font-size="16" fill="#27364c">Autonomous Pet</text><path d="M1070 340l7 7 15-18" fill="none" stroke="#1769c2" stroke-width="4"/><text x="884" y="391" font-family="Segoe UI,Arial" font-size="16" fill="#27364c">Reset Position</text><text x="884" y="433" font-family="Segoe UI,Arial" font-size="16" fill="#27364c">Settings…</text><path d="M862 450h268" stroke="#d3dce9"/><text x="884" y="484" font-family="Segoe UI,Arial" font-size="16" fill="#27364c">Reload Pets</text><text x="884" y="526" font-family="Segoe UI,Arial" font-size="16" fill="#27364c">Quit PetRunner</text></g><g filter="url(#s)"><rect x="608" y="241" width="242" height="156" rx="8" fill="#f9fbff"/><text x="629" y="270" font-family="Segoe UI,Arial" font-size="16" font-weight="700" fill="#27364c">Change Pet</text><path d="M608 283h242" stroke="#d3dce9"/><text x="629" y="315" font-family="Segoe UI,Arial" font-size="16" fill="#27364c">Mocha</text><path d="M810 306l7 7 15-18" fill="none" stroke="#1769c2" stroke-width="4"/><text x="629" y="351" font-family="Segoe UI,Arial" font-size="16" fill="#27364c">Naru</text><text x="629" y="384" font-family="Segoe UI,Arial" font-size="16" fill="#27364c">Pixel pet</text></g><text x="82" y="695" font-family="Segoe UI,Arial" font-size="24" fill="#c3d7ef">Pick a pet, choose a size, and reload your local library from the tray.</text></svg>
