<svg xmlns="http://www.w3.org/2000/svg" width="1366" height="768"><defs><linearGradient id="b" x2="1" y2="1"><stop stop-color="#101b34"/><stop offset="1" stop-color="#0b3242"/></linearGradient><filter id="s"><feDropShadow dx="0" dy="14" stdDeviation="16" flood-opacity=".36"/></filter></defs><rect width="1366" height="768" fill="url(#b)"/><g filter="url(#s)"><rect x="158" y="104" width="880" height="526" rx="14" fill="#17263e" stroke="#3d5a7d"/><rect x="158" y="104" width="880" height="48" rx="14" fill="#233855"/><text x="188" y="135" font-family="Segoe UI,Arial" font-size="16" fill="#dce9fa">A focused desktop workspace</text><g fill="#5d789b"><rect x="208" y="196" width="350" height="15" rx="7"/><rect x="208" y="235" width="570" height="15" rx="7"/><rect x="208" y="274" width="435" height="15" rx="7"/><rect x="208" y="313" width="610" height="15" rx="7"/></g><rect x="208" y="395" width="355" height="144" rx="12" fill="#122036" stroke="#2e4d72"/><text x="234" y="434" font-family="Segoe UI,Arial" font-size="19" font-weight="700" fill="#dce9fa">PetRunner</text><text x="234" y="472" font-family="Segoe UI,Arial" font-size="16" fill="#a8bfdb">Drag to move your pet.</text><text x="234" y="502" font-family="Segoe UI,Arial" font-size="16" fill="#a8bfdb">Use the corner handle to resize.</text></g><g transform="translate(960 462)" filter="url(#s)"><path d="M0 48h28V17h24v22h27V12h25v27h27v35h-18v22H88v17H54V96H25V74H0z" fill="#ef8b31" stroke="#162338" stroke-width="8" stroke-linejoin="round"/><rect x="39" y="56" width="10" height="10" fill="#182438"/><rect x="83" y="56" width="10" height="10" fill="#182438"/><path d="M62 75h13l-5 7h-4z" fill="#182438"/><path d="M100 91l21 21m0-21-21 21" stroke="#e8f3ff" stroke-width="5"/><rect x="109" y="100" width="27" height="27" fill="none" stroke="#7fd7ff" stroke-width="3" stroke-dasharray="4 4"/></g><path d="M1185 529C1110 477 1080 442 1057 410" fill="none" stroke="#7fd7ff" stroke-width="3" stroke-dasharray="9 8"/><text x="931" y="196" font-family="Segoe UI,Arial" font-size="23" font-weight="700" fill="#d6eaff">Move it. Resize it.</text><text x="931" y="230" font-family="Segoe UI,Arial" font-size="18" fill="#a7c3df">Make your pet at home on any desktop.</text></svg>
