<svg xmlns="http://www.w3.org/2000/svg" width="1366" height="768"><defs><linearGradient id="b" x2="1" y2="1"><stop stop-color="#14223b"/><stop offset="1" stop-color="#0a111f"/></linearGradient><filter id="s"><feDropShadow dx="0" dy="16" stdDeviation="18" flood-opacity=".4"/></filter></defs><rect width="1366" height="768" fill="url(#b)"/><g filter="url(#s)"><rect x="460" y="90" width="446" height="550" rx="9" fill="#f8faff"/><rect x="460" y="90" width="446" height="60" rx="9" fill="#edf2f8"/><text x="486" y="128" font-family="Segoe UI,Arial" font-size="19" fill="#182538">PetRunner Settings</text><text x="487" y="200" font-family="Segoe UI,Arial" font-size="22" font-weight="700" fill="#162337">Autonomous Pet</text><text x="487" y="242" font-family="Segoe UI,Arial" font-size="16" fill="#34465d">Wait between actions</text><rect x="487" y="260" width="94" height="36" rx="4" fill="white" stroke="#9aabbf"/><text x="506" y="284" font-family="Segoe UI,Arial" font-size="16" fill="#1c2a3c">10</text><text x="597" y="284" font-family="Segoe UI,Arial" font-size="16" fill="#34465d">to</text><rect x="625" y="260" width="94" height="36" rx="4" fill="white" stroke="#9aabbf"/><text x="644" y="284" font-family="Segoe UI,Arial" font-size="16" fill="#1c2a3c">20</text><text x="735" y="284" font-family="Segoe UI,Arial" font-size="16" fill="#34465d">seconds</text><text x="487" y="337" font-family="Segoe UI,Arial" font-size="16" fill="#34465d">Enabled actions</text><g font-family="Segoe UI,Arial" font-size="17" fill="#26374e"><rect x="487" y="358" width="20" height="20" rx="3" fill="#1769c2"/><path d="M491 367l5 5 8-10" stroke="white" fill="none" stroke-width="3"/><text x="520" y="375">Walk</text><rect x="487" y="397" width="20" height="20" rx="3" fill="#1769c2"/><path d="M491 406l5 5 8-10" stroke="white" fill="none" stroke-width="3"/><text x="520" y="414">Wave</text><rect x="487" y="436" width="20" height="20" rx="3" fill="#1769c2"/><path d="M491 445l5 5 8-10" stroke="white" fill="none" stroke-width="3"/><text x="520" y="453">Jump</text><rect x="487" y="475" width="20" height="20" rx="3" fill="#1769c2"/><path d="M491 484l5 5 8-10" stroke="white" fill="none" stroke-width="3"/><text x="520" y="492">Cry</text></g><rect x="706" y="562" width="82" height="42" rx="5" fill="white" stroke="#94a6bd"/><text x="726" y="589" font-family="Segoe UI,Arial" font-size="16" fill="#26374e">Cancel</text><rect x="799" y="562" width="74" height="42" rx="5" fill="#1769c2"/><text x="823" y="589" font-family="Segoe UI,Arial" font-size="16" fill="white">Save</text></g><text x="88" y="692" font-family="Segoe UI,Arial" font-size="24" fill="#c3d7ef">Set the pace. Your pet stays local on your desktop.</text></svg>
